<svg preserveAspectRatio="none" width="10000" height="3786" viewBox="0 0 10000 3786" fill="none" xmlns="http://www.w3.org/2000/svg">
<rect width="10000" height="3786" fill="white"/>
<mask id="mask0" mask-type="alpha" maskUnits="userSpaceOnUse" x="0" y="0" width="10000" height="3786">
<rect width="10000" height="3786" fill="white"/>
</mask>
<g mask="url(#mask0)">
<path d="M87.3442 2264.98C-989.39 2264.98 -1513.34 2266.3 -2261.84 2365.49C-2395.18 1663.39 -2720.51 113.74 -2400.49 77.3886C-2000.48 31.9488 1646.92 -249.21 2729.79 -303.643C3812.66 -358.076 7789.53 -503.389 8412.87 -521.849C9036.21 -540.308 12202 -331.096 12249.2 -303.643C12287 -281.68 12366.8 1109.41 12402 1802.21C11888.1 1908.08 10875.3 2324.31 10734.4 2324.31C10558.4 2324.31 9991.46 2396 9287.75 2396C8744.17 2396 8178.5 2357.49 7110.97 2324.31C6095.25 2292.74 5105.36 2396 4269.74 2396C3434.12 2396 1188.71 2264.98 87.3442 2264.98Z" fill="#35963F"/>
<path d="M1295.75 2207.5C418.246 2207.5 -8.75391 2208.82 -618.754 2308C-727.421 1606.01 -992.553 56.6313 -731.753 20.2858C-405.753 -25.1462 2566.75 -306.257 3449.25 -360.68C4331.75 -415.104 7572.75 -560.392 8080.75 -578.849C8588.75 -597.305 11168.7 -388.129 11207.2 -360.68C11238 -338.722 11303.1 1052.13 11331.7 1744.81C10912.9 1850.66 10087.5 2266.82 9972.75 2266.82C9829.25 2266.82 9367.25 2338.5 8793.75 2338.5C8350.75 2338.5 7889.75 2300 7019.75 2266.82C6191.98 2235.26 5385.25 2338.5 4704.25 2338.5C4023.25 2338.5 2193.32 2207.5 1295.75 2207.5Z" fill="#3EB74A"/>
<path d="M1593.75 2136.5C716.246 2136.5 289.246 2137.82 -320.754 2237C-429.421 1535.01 -694.553 -14.3687 -433.753 -50.7142C-107.753 -96.1462 2864.75 -377.257 3747.25 -431.68C4629.75 -486.104 7870.75 -631.392 8378.75 -649.849C8886.75 -668.305 11466.7 -459.129 11505.2 -431.68C11536 -409.722 11601.1 981.129 11629.7 1673.81C11210.9 1779.66 10385.5 2195.82 10270.7 2195.82C10127.2 2195.82 9665.25 2267.5 9091.75 2267.5C8648.75 2267.5 8187.75 2229 7317.75 2195.82C6489.98 2164.26 5683.25 2267.5 5002.25 2267.5C4321.25 2267.5 2491.32 2136.5 1593.75 2136.5Z" fill="url(#paint0_linear)"/>
</g>
<defs>
<linearGradient id="paint0_linear" x1="5542.37" y1="-651" x2="5542.37" y2="2267.5" gradientUnits="userSpaceOnUse">
<stop stop-color="#D1FFD6"/>
<stop offset="1" stop-color="#80DC89"/>
</linearGradient>
</defs>
</svg>
