<svg preserveAspectRatio="none" width="10000" height="3786" viewBox="0 0 10000 3786" fill="none" xmlns="http://www.w3.org/2000/svg">
<rect width="10000" height="3786" fill="white"/>
<mask id="mask0" mask-type="alpha" maskUnits="userSpaceOnUse" x="0" y="0" width="10000" height="3786">
<rect width="10000" height="3786" fill="white"/>
</mask>
<g mask="url(#mask0)">
<path d="M1593.75 2136.5C716.246 2136.5 289.246 2137.82 -320.754 2237C-429.421 1535.01 -694.553 -14.3687 -433.753 -50.7142C-107.753 -96.1462 2864.75 -377.257 3747.25 -431.68C4629.75 -486.104 7870.75 -631.392 8378.75 -649.849C8886.75 -668.305 11466.7 -459.129 11505.2 -431.68C11536 -409.722 11601.1 981.129 11629.7 1673.81C11210.9 1779.66 10385.5 2195.82 10270.7 2195.82C10127.2 2195.82 9665.25 2267.5 9091.75 2267.5C8648.75 2267.5 8187.75 2229 7317.75 2195.82C6489.98 2164.26 5683.25 2267.5 5002.25 2267.5C4321.25 2267.5 2491.32 2136.5 1593.75 2136.5Z" fill="#80DC89"/>
</g>
</svg>
